# xmcd
# Track frame offsets:
# 150
# 16580
# 30656
# 46115
# 59032
# 78456
# 93107
# 111434
# 129612
# 143529
# 158324
# 183560
#
# Disc length: 2723 seconds
# Revision: 0
# Processed by: cddbd v1.5.2PL0 Copyright (c) Steve Scherf et al.
# Submitted via: VisiTrax 2.11.3.279 - For more info visit www.synapsa.com
#
DISCID=8e0aa10c
DTITLE=Lily Meola - They Say
DYEAR=2017
DGENRE=
TTITLE0=Bad Weather
TTITLE1=Sinkin`Soon
TTITLE2=They Say
TTITLE3=Dream A Little Dream Of Me
TTITLE4=Don´t Change
TTITLE5=Bobby McGee (with Kris Kristofferson)
TTITLE6=Easy Love
TTITLE7=LA (Willie Nelson on Guitar)
TTITLE8=Bad Boy
TTITLE9=Movie In My Mind (Willie Nelson On Guitar)
TTITLE10=Sound Of Your Memory (with Lukas Nelson9
TTITLE11=Will You remember Mine (with Willie Nelson)
EXTD=
EXTT0=
EXTT1=
EXTT2=
EXTT3=
EXTT4=
EXTT5=
EXTT6=
EXTT7=
EXTT8=
EXTT9=
EXTT10=
EXTT11=
PLAYORDER=
